<svg xmlns="http://www.w3.org/2000/svg" xmlns:xlink="http://www.w3.org/1999/xlink" width="500" zoomAndPan="magnify" viewBox="0 0 375 374.999991" height="500" preserveAspectRatio="xMidYMid meet" version="1.0"><defs><g/><clipPath id="4d487cdfd9"><path d="M 87 18.75 L 375 18.75 L 375 267.359375 L 87 267.359375 Z M 87 18.75 " clip-rule="nonzero"/></clipPath><clipPath id="484987778f"><path d="M 1.488281 65 L 211 65 L 211 267 L 1.488281 267 Z M 1.488281 65 " clip-rule="nonzero"/></clipPath><clipPath id="2b51d89594"><path d="M 86 32.148438 L 373.660156 32.148438 L 373.660156 280.757812 L 86 280.757812 Z M 86 32.148438 " clip-rule="nonzero"/></clipPath><clipPath id="32d204337e"><path d="M 0 78 L 209 78 L 209 280.757812 L 0 280.757812 Z M 0 78 " clip-rule="nonzero"/></clipPath></defs><g clip-path="url(#4d487cdfd9)"><path fill="#ffd700" d="M 256.089844 89.480469 C 227.652344 145.226562 199.753906 199.910156 171.257812 255.765625 C 157.167969 228.21875 143.566406 201.628906 129.625 174.371094 C 115.707031 187.390625 102.296875 199.929688 88.894531 212.464844 C 88.554688 212.183594 88.207031 211.902344 87.867188 211.628906 C 103.050781 187.605469 118.230469 163.582031 133.996094 138.644531 C 146.445312 158.097656 158.46875 176.875 171.257812 196.847656 C 200.203125 137.195312 228.714844 78.449219 257.683594 18.75 C 296.96875 101.792969 335.855469 184 375.03125 266.828125 C 372.742188 267.027344 371.253906 267.269531 369.761719 267.269531 C 348.632812 267.292969 327.5 267.203125 306.371094 267.359375 C 302.535156 267.394531 300.554688 266 298.785156 262.5625 C 285.351562 236.492188 271.699219 210.535156 258.097656 184.546875 C 257.300781 183.023438 256.382812 181.574219 255.128906 179.433594 C 234.847656 206.964844 214.90625 234.03125 194.964844 261.09375 C 194.617188 260.871094 194.257812 260.65625 193.910156 260.433594 C 214.484375 218.21875 235.054688 176.003906 256.066406 132.894531 C 275.515625 162.207031 294.554688 190.894531 313.597656 219.585938 C 313.957031 219.386719 314.320312 219.195312 314.675781 218.996094 C 295.300781 176.160156 275.925781 133.324219 256.089844 89.480469 Z M 256.089844 89.480469 " fill-opacity="1" fill-rule="nonzero"/></g><g clip-path="url(#484987778f)"><path fill="#ffd700" d="M 1.605469 266.265625 C 45.710938 198.96875 89.109375 132.753906 133.152344 65.5625 C 146.011719 89.945312 158.535156 113.660156 171.5625 138.363281 C 184.542969 122.046875 196.988281 106.402344 209.429688 90.753906 C 209.667969 90.914062 209.902344 91.070312 210.144531 91.21875 C 197.320312 118.964844 184.492188 146.699219 171.207031 175.457031 C 158.503906 156.621094 146.238281 138.429688 133.492188 119.527344 C 131.890625 121.667969 130.585938 123.167969 129.539062 124.832031 C 101.441406 169.6875 73.277344 214.503906 45.394531 259.503906 C 42.175781 264.699219 38.898438 267.226562 32.640625 266.738281 C 24.550781 266.101562 16.375 266.605469 8.242188 266.574219 C 6.402344 266.574219 4.558594 266.414062 1.605469 266.265625 Z M 1.605469 266.265625 " fill-opacity="1" fill-rule="nonzero"/></g><g clip-path="url(#2b51d89594)"><path fill="#115273" d="M 254.601562 102.878906 C 226.164062 158.625 198.265625 213.308594 169.769531 269.164062 C 155.675781 241.617188 142.078125 215.027344 128.136719 187.769531 C 114.21875 200.789062 100.808594 213.328125 87.40625 225.863281 C 87.066406 225.582031 86.71875 225.300781 86.378906 225.027344 C 101.5625 201.003906 116.742188 176.980469 132.507812 152.042969 C 144.957031 171.492188 156.980469 190.273438 169.769531 210.242188 C 198.710938 150.59375 227.226562 91.847656 256.195312 32.148438 C 295.480469 115.191406 334.367188 197.398438 373.542969 280.226562 C 371.253906 280.425781 369.765625 280.667969 368.273438 280.667969 C 347.144531 280.691406 326.007812 280.601562 304.882812 280.757812 C 301.046875 280.789062 299.066406 279.398438 297.296875 275.960938 C 283.863281 249.890625 270.210938 223.933594 256.609375 197.945312 C 255.8125 196.421875 254.890625 194.972656 253.640625 192.832031 C 233.359375 220.363281 213.417969 247.425781 193.476562 274.492188 C 193.128906 274.269531 192.769531 274.054688 192.421875 273.828125 C 212.996094 231.617188 233.566406 189.402344 254.578125 146.292969 C 274.027344 175.605469 293.066406 204.292969 312.109375 232.984375 C 312.464844 232.785156 312.832031 232.59375 313.1875 232.394531 C 293.8125 189.558594 274.433594 146.722656 254.601562 102.878906 Z M 254.601562 102.878906 " fill-opacity="1" fill-rule="nonzero"/></g><g clip-path="url(#32d204337e)"><path fill="#115273" d="M 0.117188 279.664062 C 44.222656 212.367188 87.621094 146.152344 131.660156 78.960938 C 144.523438 103.339844 157.046875 127.058594 170.074219 151.761719 C 183.054688 135.445312 195.5 119.800781 207.941406 104.152344 C 208.179688 104.3125 208.414062 104.46875 208.652344 104.617188 C 195.832031 132.363281 183.003906 160.097656 169.71875 188.855469 C 157.011719 170.019531 144.75 151.828125 132.003906 132.925781 C 130.402344 135.0625 129.097656 136.5625 128.050781 138.230469 C 99.953125 183.085938 71.789062 227.902344 43.90625 272.902344 C 40.6875 278.097656 37.410156 280.625 31.152344 280.136719 C 23.0625 279.5 14.886719 280.003906 6.753906 279.96875 C 4.914062 279.96875 3.070312 279.8125 0.117188 279.664062 Z M 0.117188 279.664062 " fill-opacity="1" fill-rule="nonzero"/></g><g fill="#ffffff" fill-opacity="1"><g transform="translate(60.328126, 339.235437)"><g><path d="M 38.640625 -41.515625 L 44.78125 -41.515625 L 44.78125 0 L 38.703125 0 L 38.703125 -31.84375 L 26.578125 -15.15625 L 21.84375 -15.15625 L 9.65625 -31.84375 L 9.65625 0 L 3.515625 0 L 3.515625 -41.515625 L 9.65625 -41.515625 L 24.1875 -21.546875 Z M 38.640625 -41.515625 "/></g></g></g><g fill="#ffffff" fill-opacity="1"><g transform="translate(108.619581, 339.235437)"><g><path d="M 22.546875 -42.09375 C 25.347656 -42.09375 28 -41.523438 30.5 -40.390625 C 33 -39.265625 35.175781 -37.734375 37.03125 -35.796875 C 38.882812 -33.867188 40.359375 -31.601562 41.453125 -29 C 42.546875 -26.40625 43.09375 -23.664062 43.09375 -20.78125 C 43.09375 -17.851562 42.546875 -15.101562 41.453125 -12.53125 C 40.359375 -9.957031 38.875 -7.703125 37 -5.765625 C 35.125 -3.835938 32.9375 -2.304688 30.4375 -1.171875 C 27.945312 -0.0351562 25.296875 0.53125 22.484375 0.53125 C 19.671875 0.53125 17.015625 -0.0351562 14.515625 -1.171875 C 12.015625 -2.304688 9.835938 -3.835938 7.984375 -5.765625 C 6.128906 -7.703125 4.664062 -9.957031 3.59375 -12.53125 C 2.519531 -15.101562 1.984375 -17.851562 1.984375 -20.78125 C 1.984375 -23.664062 2.519531 -26.40625 3.59375 -29 C 4.664062 -31.601562 6.140625 -33.867188 8.015625 -35.796875 C 9.890625 -37.734375 12.078125 -39.265625 14.578125 -40.390625 C 17.078125 -41.523438 19.734375 -42.09375 22.546875 -42.09375 Z M 22.546875 -5.265625 C 24.535156 -5.265625 26.394531 -5.664062 28.125 -6.46875 C 29.863281 -7.269531 31.375 -8.375 32.65625 -9.78125 C 33.945312 -11.1875 34.960938 -12.832031 35.703125 -14.71875 C 36.453125 -16.613281 36.828125 -18.632812 36.828125 -20.78125 C 36.828125 -22.925781 36.453125 -24.9375 35.703125 -26.8125 C 34.960938 -28.6875 33.945312 -30.328125 32.65625 -31.734375 C 31.375 -33.140625 29.863281 -34.238281 28.125 -35.03125 C 26.394531 -35.832031 24.535156 -36.234375 22.546875 -36.234375 C 20.546875 -36.234375 18.675781 -35.832031 16.9375 -35.03125 C 15.207031 -34.238281 13.695312 -33.140625 12.40625 -31.734375 C 11.125 -30.328125 10.101562 -28.6875 9.34375 -26.8125 C 8.582031 -24.9375 8.203125 -22.925781 8.203125 -20.78125 C 8.203125 -18.632812 8.582031 -16.613281 9.34375 -14.71875 C 10.101562 -12.832031 11.125 -11.1875 12.40625 -9.78125 C 13.695312 -8.375 15.207031 -7.269531 16.9375 -6.46875 C 18.675781 -5.664062 20.546875 -5.265625 22.546875 -5.265625 Z M 22.546875 -5.265625 "/></g></g></g><g fill="#ffffff" fill-opacity="1"><g transform="translate(153.515997, 339.235437)"><g><path d="M 3.28125 11.59375 L 3.28125 -28.046875 L 7.78125 -28.046875 L 8.953125 -25.109375 C 10.085938 -26.242188 11.382812 -27.125 12.84375 -27.75 C 14.3125 -28.375 15.960938 -28.6875 17.796875 -28.6875 C 19.742188 -28.6875 21.546875 -28.304688 23.203125 -27.546875 C 24.867188 -26.785156 26.304688 -25.738281 27.515625 -24.40625 C 28.722656 -23.082031 29.664062 -21.519531 30.34375 -19.71875 C 31.03125 -17.925781 31.375 -16.019531 31.375 -14 C 31.375 -11.96875 31.03125 -10.050781 30.34375 -8.25 C 29.664062 -6.457031 28.722656 -4.894531 27.515625 -3.5625 C 26.304688 -2.238281 24.867188 -1.195312 23.203125 -0.4375 C 21.546875 0.320312 19.742188 0.703125 17.796875 0.703125 C 15.878906 0.703125 14.195312 0.378906 12.75 -0.265625 C 11.3125 -0.910156 10.046875 -1.835938 8.953125 -3.046875 L 8.953125 11.59375 Z M 17.328125 -23.53125 C 16.191406 -23.53125 15.117188 -23.34375 14.109375 -22.96875 C 13.097656 -22.601562 12.207031 -22.019531 11.4375 -21.21875 C 10.675781 -20.414062 10.082031 -19.421875 9.65625 -18.234375 C 9.226562 -17.046875 9.015625 -15.632812 9.015625 -14 C 9.015625 -12.238281 9.226562 -10.742188 9.65625 -9.515625 C 10.082031 -8.285156 10.675781 -7.289062 11.4375 -6.53125 C 12.207031 -5.769531 13.097656 -5.210938 14.109375 -4.859375 C 15.117188 -4.503906 16.191406 -4.328125 17.328125 -4.328125 C 18.460938 -4.328125 19.535156 -4.582031 20.546875 -5.09375 C 21.566406 -5.601562 22.445312 -6.296875 23.1875 -7.171875 C 23.925781 -8.046875 24.507812 -9.066406 24.9375 -10.234375 C 25.363281 -11.410156 25.578125 -12.664062 25.578125 -14 C 25.578125 -15.320312 25.363281 -16.566406 24.9375 -17.734375 C 24.507812 -18.910156 23.925781 -19.925781 23.1875 -20.78125 C 22.445312 -21.644531 21.566406 -22.316406 20.546875 -22.796875 C 19.535156 -23.285156 18.460938 -23.53125 17.328125 -23.53125 Z M 17.328125 -23.53125 "/></g></g></g><g fill="#ffffff" fill-opacity="1"><g transform="translate(186.529797, 339.235437)"><g><path d="M 16.5625 0.703125 C 14.539062 0.703125 12.640625 0.320312 10.859375 -0.4375 C 9.085938 -1.195312 7.535156 -2.238281 6.203125 -3.5625 C 4.878906 -4.894531 3.835938 -6.457031 3.078125 -8.25 C 2.316406 -10.050781 1.9375 -11.96875 1.9375 -14 C 1.9375 -16.019531 2.296875 -17.925781 3.015625 -19.71875 C 3.734375 -21.519531 4.707031 -23.082031 5.9375 -24.40625 C 7.164062 -25.738281 8.597656 -26.785156 10.234375 -27.546875 C 11.878906 -28.304688 13.640625 -28.6875 15.515625 -28.6875 C 17.429688 -28.6875 19.195312 -28.351562 20.8125 -27.6875 C 22.4375 -27.03125 23.84375 -26 25.03125 -24.59375 C 26.21875 -23.1875 27.144531 -21.398438 27.8125 -19.234375 C 28.476562 -17.066406 28.8125 -14.476562 28.8125 -11.46875 L 7.96875 -11.46875 C 8.238281 -10.457031 8.664062 -9.507812 9.25 -8.625 C 9.832031 -7.75 10.523438 -6.988281 11.328125 -6.34375 C 12.128906 -5.707031 13.023438 -5.210938 14.015625 -4.859375 C 15.015625 -4.503906 16.0625 -4.328125 17.15625 -4.328125 C 18.632812 -4.328125 20.007812 -4.597656 21.28125 -5.140625 C 22.550781 -5.691406 23.632812 -6.414062 24.53125 -7.3125 L 28.046875 -3.8125 C 26.679688 -2.4375 25.007812 -1.335938 23.03125 -0.515625 C 21.0625 0.296875 18.90625 0.703125 16.5625 0.703125 Z M 15.515625 -23.53125 C 14.617188 -23.53125 13.769531 -23.351562 12.96875 -23 C 12.164062 -22.65625 11.421875 -22.171875 10.734375 -21.546875 C 10.054688 -20.921875 9.472656 -20.175781 8.984375 -19.3125 C 8.492188 -18.457031 8.132812 -17.523438 7.90625 -16.515625 L 22.71875 -16.515625 C 22.632812 -17.453125 22.414062 -18.347656 22.0625 -19.203125 C 21.71875 -20.054688 21.234375 -20.804688 20.609375 -21.453125 C 19.984375 -22.097656 19.25 -22.601562 18.40625 -22.96875 C 17.570312 -23.34375 16.609375 -23.53125 15.515625 -23.53125 Z M 15.515625 -23.53125 "/></g></g></g><g fill="#ffffff" fill-opacity="1"><g transform="translate(217.5534, 339.235437)"><g><path d="M 8.84375 0 L 3.15625 0 L 3.15625 -28.046875 L 7.671875 -28.046875 L 8.84375 -25.578125 C 9.78125 -26.484375 10.910156 -27.226562 12.234375 -27.8125 C 13.566406 -28.394531 15.007812 -28.6875 16.5625 -28.6875 C 17.582031 -28.6875 18.734375 -28.53125 20.015625 -28.21875 C 21.304688 -27.90625 22.507812 -27.316406 23.625 -26.453125 C 24.738281 -25.597656 25.675781 -24.410156 26.4375 -22.890625 C 27.195312 -21.367188 27.578125 -19.398438 27.578125 -16.984375 L 27.578125 0 L 22.1875 0 L 22.1875 -17.03125 C 22.1875 -18.25 22 -19.273438 21.625 -20.109375 C 21.257812 -20.953125 20.773438 -21.625 20.171875 -22.125 C 19.566406 -22.632812 18.882812 -22.992188 18.125 -23.203125 C 17.363281 -23.421875 16.570312 -23.53125 15.75 -23.53125 C 15.125 -23.53125 14.410156 -23.410156 13.609375 -23.171875 C 12.804688 -22.941406 12.050781 -22.5625 11.34375 -22.03125 C 10.644531 -21.507812 10.050781 -20.847656 9.5625 -20.046875 C 9.082031 -19.253906 8.84375 -18.269531 8.84375 -17.09375 Z M 8.84375 0 "/></g></g></g><g fill="#ffffff" fill-opacity="1"><g transform="translate(248.811138, 339.235437)"><g><path d="M 7.3125 0 L 0.640625 0 L 17.921875 -41.515625 L 24.640625 -41.515625 L 41.921875 0 L 35.296875 0 L 29.859375 -13 L 12.703125 -13 Z M 15.046875 -18.625 L 27.515625 -18.625 L 21.3125 -33.609375 Z M 15.046875 -18.625 "/></g></g></g><g fill="#ffffff" fill-opacity="1"><g transform="translate(291.658845, 339.235437)"><g><path d="M 14.515625 -36.46875 L 14.515625 -5.03125 L 17.5625 -5.03125 L 17.5625 0 L 5.328125 0 L 5.328125 -5.03125 L 8.4375 -5.03125 L 8.4375 -36.46875 L 5.328125 -36.46875 L 5.328125 -41.515625 L 17.5625 -41.515625 L 17.5625 -36.46875 Z M 14.515625 -36.46875 "/></g></g></g></svg>