<svg xmlns="http://www.w3.org/2000/svg" xmlns:xlink="http://www.w3.org/1999/xlink" width="500" zoomAndPan="magnify" viewBox="0 0 375 374.999991" height="500" preserveAspectRatio="xMidYMid meet" version="1.0"><defs><g/><clipPath id="6368b440ff"><path d="M 87 18.75 L 375 18.75 L 375 267.359375 L 87 267.359375 Z M 87 18.75 " clip-rule="nonzero"/></clipPath><clipPath id="b46275a79e"><path d="M 1.488281 65 L 211 65 L 211 267 L 1.488281 267 Z M 1.488281 65 " clip-rule="nonzero"/></clipPath><clipPath id="2bbaff6685"><path d="M 86 32.148438 L 373.660156 32.148438 L 373.660156 280.757812 L 86 280.757812 Z M 86 32.148438 " clip-rule="nonzero"/></clipPath><clipPath id="409e2d8c1b"><path d="M 0 78 L 209 78 L 209 280.757812 L 0 280.757812 Z M 0 78 " clip-rule="nonzero"/></clipPath></defs><g clip-path="url(#6368b440ff)"><path fill="#ffd700" d="M 256.089844 89.480469 C 227.652344 145.226562 199.753906 199.910156 171.257812 255.765625 C 157.167969 228.21875 143.566406 201.628906 129.625 174.371094 C 115.707031 187.390625 102.296875 199.929688 88.894531 212.464844 C 88.554688 212.183594 88.207031 211.902344 87.867188 211.628906 C 103.050781 187.605469 118.230469 163.582031 133.996094 138.644531 C 146.445312 158.097656 158.46875 176.875 171.257812 196.847656 C 200.203125 137.195312 228.714844 78.449219 257.683594 18.75 C 296.96875 101.792969 335.855469 184 375.03125 266.828125 C 372.742188 267.027344 371.253906 267.269531 369.761719 267.269531 C 348.632812 267.292969 327.5 267.203125 306.371094 267.359375 C 302.535156 267.394531 300.554688 266 298.785156 262.5625 C 285.351562 236.492188 271.699219 210.535156 258.097656 184.546875 C 257.300781 183.023438 256.382812 181.574219 255.128906 179.433594 C 234.847656 206.964844 214.90625 234.03125 194.964844 261.09375 C 194.617188 260.871094 194.257812 260.65625 193.910156 260.433594 C 214.484375 218.21875 235.054688 176.003906 256.066406 132.894531 C 275.515625 162.207031 294.554688 190.894531 313.597656 219.585938 C 313.957031 219.386719 314.320312 219.195312 314.675781 218.996094 C 295.300781 176.160156 275.925781 133.324219 256.089844 89.480469 Z M 256.089844 89.480469 " fill-opacity="1" fill-rule="nonzero"/></g><g clip-path="url(#b46275a79e)"><path fill="#ffd700" d="M 1.605469 266.265625 C 45.710938 198.96875 89.109375 132.753906 133.152344 65.5625 C 146.011719 89.945312 158.535156 113.660156 171.5625 138.363281 C 184.542969 122.046875 196.988281 106.402344 209.429688 90.753906 C 209.667969 90.914062 209.902344 91.070312 210.144531 91.21875 C 197.320312 118.964844 184.492188 146.699219 171.207031 175.457031 C 158.503906 156.621094 146.238281 138.429688 133.492188 119.527344 C 131.890625 121.667969 130.585938 123.167969 129.539062 124.832031 C 101.441406 169.6875 73.277344 214.503906 45.394531 259.503906 C 42.175781 264.699219 38.898438 267.226562 32.640625 266.738281 C 24.550781 266.101562 16.375 266.605469 8.242188 266.574219 C 6.402344 266.574219 4.558594 266.414062 1.605469 266.265625 Z M 1.605469 266.265625 " fill-opacity="1" fill-rule="nonzero"/></g><g clip-path="url(#2bbaff6685)"><path fill="#115273" d="M 254.601562 102.878906 C 226.164062 158.625 198.265625 213.308594 169.769531 269.164062 C 155.675781 241.617188 142.078125 215.027344 128.136719 187.769531 C 114.21875 200.789062 100.808594 213.328125 87.40625 225.863281 C 87.066406 225.582031 86.71875 225.300781 86.378906 225.027344 C 101.5625 201.003906 116.742188 176.980469 132.507812 152.042969 C 144.957031 171.492188 156.980469 190.273438 169.769531 210.242188 C 198.710938 150.59375 227.226562 91.847656 256.195312 32.148438 C 295.480469 115.191406 334.367188 197.398438 373.542969 280.226562 C 371.253906 280.425781 369.765625 280.667969 368.273438 280.667969 C 347.144531 280.691406 326.007812 280.601562 304.882812 280.757812 C 301.046875 280.789062 299.066406 279.398438 297.296875 275.960938 C 283.863281 249.890625 270.210938 223.933594 256.609375 197.945312 C 255.8125 196.421875 254.890625 194.972656 253.640625 192.832031 C 233.359375 220.363281 213.417969 247.425781 193.476562 274.492188 C 193.128906 274.269531 192.769531 274.054688 192.421875 273.828125 C 212.996094 231.617188 233.566406 189.402344 254.578125 146.292969 C 274.027344 175.605469 293.066406 204.292969 312.109375 232.984375 C 312.464844 232.785156 312.832031 232.59375 313.1875 232.394531 C 293.8125 189.558594 274.433594 146.722656 254.601562 102.878906 Z M 254.601562 102.878906 " fill-opacity="1" fill-rule="nonzero"/></g><g clip-path="url(#409e2d8c1b)"><path fill="#115273" d="M 0.117188 279.664062 C 44.222656 212.367188 87.621094 146.152344 131.660156 78.960938 C 144.523438 103.339844 157.046875 127.058594 170.074219 151.761719 C 183.054688 135.445312 195.5 119.800781 207.941406 104.152344 C 208.179688 104.3125 208.414062 104.46875 208.652344 104.617188 C 195.832031 132.363281 183.003906 160.097656 169.71875 188.855469 C 157.011719 170.019531 144.75 151.828125 132.003906 132.925781 C 130.402344 135.0625 129.097656 136.5625 128.050781 138.230469 C 99.953125 183.085938 71.789062 227.902344 43.90625 272.902344 C 40.6875 278.097656 37.410156 280.625 31.152344 280.136719 C 23.0625 279.5 14.886719 280.003906 6.753906 279.96875 C 4.914062 279.96875 3.070312 279.8125 0.117188 279.664062 Z M 0.117188 279.664062 " fill-opacity="1" fill-rule="nonzero"/></g><g fill="#ffffff" fill-opacity="1"><g transform="translate(24.870365, 350.684752)"><g><path d="M 39.925781 -55.03125 L 28.277344 -37.703125 L 16.625 -55.089844 L 16.566406 -55.089844 C 9.015625 -55.089844 2.925781 -49 2.925781 -41.449219 L 2.925781 0.234375 C 10.480469 0.234375 16.566406 -5.855469 16.566406 -13.40625 L 16.566406 -32.257812 L 28.277344 -18.910156 L 39.925781 -32.785156 L 39.925781 0.234375 C 47.480469 0.234375 53.566406 -5.855469 53.566406 -13.40625 L 53.566406 -55.03125 Z M 39.925781 -55.03125 "/></g></g></g><g fill="#ffffff" fill-opacity="1"><g transform="translate(81.467751, 350.684752)"><g><path d="M 1.171875 -5.035156 L 1.171875 1.171875 L 5.738281 1.171875 C 7.433594 1.171875 8.839844 -0.175781 8.839844 -1.875 L 8.839844 -8.078125 L 4.214844 -8.078125 C 2.515625 -8.078125 1.171875 -6.675781 1.171875 -5.035156 Z M 1.171875 -5.035156 "/></g></g></g><g fill="#ffffff" fill-opacity="1"><g transform="translate(91.534718, 350.684752)"><g/></g></g><g fill="#ffffff" fill-opacity="1"><g transform="translate(109.093376, 350.684752)"><g><path d="M 42.210938 -50.113281 C 41.859375 -50.875 41.273438 -51.636719 40.453125 -52.335938 C 38.230469 -54.503906 35.125 -55.558594 31.789062 -55.851562 C 29.796875 -56.027344 24.003906 -56.144531 21.777344 -56.144531 C 19.378906 -56.144531 17.210938 -56.027344 15.105469 -55.851562 C 8.429688 -55.207031 2.925781 -50.523438 2.925781 -43.964844 L 2.925781 -11.066406 C 2.925781 -8.839844 3.570312 -6.734375 4.683594 -4.976562 C 5.035156 -4.15625 5.621094 -3.453125 6.441406 -2.75 C 8.664062 -0.585938 11.765625 0.46875 15.105469 0.761719 C 17.09375 0.9375 19.203125 1.054688 21.484375 1.054688 C 23.828125 1.054688 29.679688 0.996094 31.789062 0.761719 C 38.464844 0.175781 43.964844 -4.507812 43.964844 -11.066406 L 43.964844 -43.964844 C 43.964844 -46.191406 43.320312 -48.296875 42.210938 -50.113281 Z M 31.789062 -14.8125 C 31.496094 -12.996094 30.324219 -11.707031 28.394531 -11.707031 L 18.5 -11.707031 C 16.625 -11.707031 15.398438 -12.996094 15.105469 -14.8125 L 15.105469 -40.570312 C 15.398438 -42.386719 16.566406 -43.671875 18.5 -43.671875 L 28.394531 -43.671875 C 30.324219 -43.671875 31.496094 -42.386719 31.789062 -40.511719 Z M 31.789062 -14.8125 "/></g></g></g><g fill="#ffffff" fill-opacity="1"><g transform="translate(156.092032, 350.684752)"><g><path d="M 15.808594 -54.972656 C 8.722656 -54.972656 2.925781 -49.703125 2.925781 -43.144531 L 2.925781 -0.117188 C 2.925781 -0.0585938 2.925781 0 2.925781 0 L 26.285156 0 C 32.84375 0 38.113281 -5.738281 38.113281 -12.878906 L 15.808594 -12.878906 Z M 15.808594 -54.972656 "/></g></g></g><g fill="#ffffff" fill-opacity="1"><g transform="translate(197.29633, 350.684752)"><g><path d="M 2.925781 -43.378906 L 2.925781 0.234375 C 10.011719 0.234375 15.691406 -5.035156 15.691406 -11.472656 L 15.691406 -55.089844 C 8.664062 -55.089844 2.925781 -49.820312 2.925781 -43.378906 Z M 2.925781 -43.378906 "/></g></g></g><g fill="#ffffff" fill-opacity="1"><g transform="translate(216.084087, 350.684752)"><g><path d="M 31.378906 -46.777344 L 23.242188 -17.152344 L 15.164062 -46.777344 C 13.289062 -52.804688 6.5 -56.027344 -0.0585938 -53.976562 L 14.402344 -7.257812 C 14.988281 -5.269531 16.15625 -3.628906 17.621094 -2.339844 C 19.203125 -0.996094 21.074219 0 23.242188 0 C 25.40625 0 27.339844 -0.996094 28.921875 -2.339844 C 30.382812 -3.628906 31.496094 -5.269531 32.140625 -7.257812 L 46.601562 -53.976562 C 40.042969 -56.027344 33.253906 -52.804688 31.378906 -46.777344 Z M 31.378906 -46.777344 "/></g></g></g><g fill="#ffffff" fill-opacity="1"><g transform="translate(262.731564, 350.684752)"><g><path d="M 15.046875 -21.71875 L 27.691406 -21.71875 L 30.558594 -33.78125 L 15.046875 -33.78125 L 15.046875 -42.152344 L 26.8125 -42.152344 C 33.957031 -42.152344 38.695312 -47.945312 38.695312 -55.148438 L 14.929688 -55.148438 C 7.960938 -55.148438 2.28125 -49.46875 2.28125 -42.445312 L 2.28125 -12.410156 C 2.28125 -5.503906 7.785156 0 14.695312 0 L 23.183594 0 C 30.324219 0 35.886719 -5.796875 35.886719 -12.996094 L 15.046875 -12.996094 Z M 15.046875 -21.71875 "/></g></g></g><g fill="#ffffff" fill-opacity="1"><g transform="translate(303.760274, 350.684752)"><g><path d="M 33.429688 -18.382812 C 34.890625 -19.144531 36.179688 -20.023438 37.292969 -21.074219 C 39.164062 -22.773438 40.570312 -24.882812 41.625 -27.398438 C 42.679688 -29.914062 43.144531 -32.84375 43.144531 -36.121094 L 43.144531 -36.296875 C 43.144531 -39.398438 42.679688 -42.152344 41.742188 -44.609375 C 40.804688 -47.070312 39.457031 -49.117188 37.703125 -50.816406 C 36.003906 -52.511719 33.839844 -53.742188 31.378906 -54.621094 C 28.921875 -55.5 26.109375 -55.96875 23.125 -55.96875 L 15.046875 -55.96875 C 9.015625 -55.96875 2.398438 -50.289062 2.398438 -43.261719 L 2.398438 0 C 9.777344 0 15.808594 -6.90625 15.808594 -15.515625 L 15.808594 -15.980469 L 21.308594 -15.980469 L 28.570312 -5.152344 C 32.257812 0.351562 38.871094 1.640625 44.375 -2.050781 Z M 15.808594 -43.03125 L 22.070312 -43.03125 C 24.53125 -43.03125 26.402344 -42.386719 27.75 -41.097656 C 29.097656 -39.867188 29.796875 -37.996094 29.796875 -35.59375 L 29.796875 -35.417969 C 29.796875 -33.195312 29.097656 -31.4375 27.75 -30.089844 C 26.402344 -28.804688 24.53125 -28.101562 22.128906 -28.101562 L 15.808594 -28.101562 Z M 15.808594 -43.03125 "/></g></g></g></svg>