<svg xmlns="http://www.w3.org/2000/svg" xmlns:xlink="http://www.w3.org/1999/xlink" width="500" zoomAndPan="magnify" viewBox="0 0 375 374.999991" height="500" preserveAspectRatio="xMidYMid meet" version="1.0"><defs><clipPath id="9b96d79558"><path d="M 87 56.375 L 375 56.375 L 375 304.984375 L 87 304.984375 Z M 87 56.375 " clip-rule="nonzero"/></clipPath><clipPath id="e6005c3f7e"><path d="M 1.488281 103 L 211 103 L 211 304.984375 L 1.488281 304.984375 Z M 1.488281 103 " clip-rule="nonzero"/></clipPath><clipPath id="7ffb864507"><path d="M 86 69.773438 L 373.660156 69.773438 L 373.660156 318.382812 L 86 318.382812 Z M 86 69.773438 " clip-rule="nonzero"/></clipPath></defs><g clip-path="url(#9b96d79558)"><path fill="#ffd700" d="M 256.089844 127.105469 C 227.652344 182.851562 199.753906 237.535156 171.257812 293.390625 C 157.167969 265.84375 143.566406 239.253906 129.625 211.996094 C 115.707031 225.015625 102.296875 237.554688 88.894531 250.089844 C 88.554688 249.808594 88.207031 249.527344 87.867188 249.253906 C 103.050781 225.230469 118.230469 201.207031 133.996094 176.269531 C 146.445312 195.722656 158.46875 214.5 171.257812 234.46875 C 200.203125 174.820312 228.714844 116.074219 257.683594 56.375 C 296.96875 139.417969 335.855469 221.625 375.03125 304.453125 C 372.742188 304.652344 371.253906 304.894531 369.761719 304.894531 C 348.632812 304.917969 327.5 304.828125 306.371094 304.984375 C 302.535156 305.019531 300.554688 303.625 298.785156 300.1875 C 285.351562 274.117188 271.699219 248.160156 258.097656 222.171875 C 257.300781 220.648438 256.382812 219.199219 255.128906 217.058594 C 234.847656 244.589844 214.90625 271.65625 194.964844 298.71875 C 194.617188 298.496094 194.257812 298.28125 193.910156 298.058594 C 214.484375 255.84375 235.054688 213.628906 256.066406 170.519531 C 275.515625 199.832031 294.554688 228.519531 313.597656 257.210938 C 313.957031 257.011719 314.320312 256.820312 314.675781 256.621094 C 295.300781 213.785156 275.925781 170.949219 256.089844 127.105469 Z M 256.089844 127.105469 " fill-opacity="1" fill-rule="nonzero"/></g><g clip-path="url(#e6005c3f7e)"><path fill="#ffd700" d="M 1.605469 303.890625 C 45.710938 236.59375 89.109375 170.378906 133.152344 103.1875 C 146.011719 127.570312 158.535156 151.285156 171.5625 175.988281 C 184.542969 159.671875 196.988281 144.027344 209.429688 128.378906 C 209.667969 128.539062 209.902344 128.695312 210.144531 128.84375 C 197.320312 156.589844 184.492188 184.324219 171.207031 213.082031 C 158.503906 194.246094 146.238281 176.054688 133.492188 157.152344 C 131.890625 159.292969 130.585938 160.792969 129.539062 162.457031 C 101.441406 207.3125 73.277344 252.128906 45.394531 297.128906 C 42.175781 302.324219 38.898438 304.851562 32.640625 304.363281 C 24.550781 303.726562 16.375 304.230469 8.242188 304.199219 C 6.402344 304.199219 4.558594 304.039062 1.605469 303.890625 Z M 1.605469 303.890625 " fill-opacity="1" fill-rule="nonzero"/></g><g clip-path="url(#7ffb864507)"><path fill="#115273" d="M 254.601562 140.503906 C 226.164062 196.25 198.265625 250.933594 169.769531 306.789062 C 155.675781 279.242188 142.078125 252.648438 128.136719 225.394531 C 114.21875 238.414062 100.808594 250.953125 87.40625 263.488281 C 87.066406 263.207031 86.71875 262.925781 86.378906 262.652344 C 101.5625 238.628906 116.742188 214.605469 132.507812 189.667969 C 144.957031 209.117188 156.980469 227.898438 169.769531 247.867188 C 198.710938 188.21875 227.226562 129.472656 256.195312 69.773438 C 295.480469 152.816406 334.367188 235.023438 373.542969 317.851562 C 371.253906 318.050781 369.765625 318.292969 368.273438 318.292969 C 347.144531 318.316406 326.007812 318.226562 304.882812 318.382812 C 301.046875 318.414062 299.066406 317.023438 297.296875 313.585938 C 283.863281 287.515625 270.210938 261.558594 256.609375 235.570312 C 255.8125 234.046875 254.890625 232.597656 253.640625 230.457031 C 233.359375 257.988281 213.417969 285.050781 193.476562 312.117188 C 193.128906 311.894531 192.769531 311.679688 192.421875 311.453125 C 212.996094 269.242188 233.566406 227.027344 254.578125 183.917969 C 274.027344 213.230469 293.066406 241.917969 312.109375 270.609375 C 312.464844 270.410156 312.832031 270.21875 313.1875 270.019531 C 293.8125 227.183594 274.433594 184.347656 254.601562 140.503906 Z M 254.601562 140.503906 " fill-opacity="1" fill-rule="nonzero"/></g><path fill="#115273" d="M 0.117188 317.289062 C 44.222656 249.992188 87.621094 183.777344 131.660156 116.585938 C 144.523438 140.964844 157.046875 164.683594 170.074219 189.386719 C 183.054688 173.070312 195.5 157.425781 207.941406 141.777344 C 208.179688 141.9375 208.414062 142.09375 208.652344 142.242188 C 195.832031 169.988281 183.003906 197.722656 169.71875 226.480469 C 157.011719 207.644531 144.75 189.453125 132.003906 170.550781 C 130.402344 172.6875 129.097656 174.1875 128.050781 175.855469 C 99.953125 220.710938 71.789062 265.527344 43.90625 310.527344 C 40.6875 315.722656 37.410156 318.25 31.152344 317.761719 C 23.0625 317.125 14.886719 317.628906 6.753906 317.59375 C 4.914062 317.59375 3.070312 317.4375 0.117188 317.289062 Z M 0.117188 317.289062 " fill-opacity="1" fill-rule="nonzero"/></svg>